<?xml version="1.0" standalone="no"?>
<!DOCTYPE svg PUBLIC "-//W3C//DTD SVG 20010904//EN"
 "http://www.w3.org/TR/2001/REC-SVG-20010904/DTD/svg10.dtd">
<svg version="1.0" xmlns="http://www.w3.org/2000/svg"
 width="912.000000pt" height="282.000000pt" viewBox="0 0 912.000000 282.000000"
 preserveAspectRatio="xMidYMid meet">

<g transform="translate(0.000000,282.000000) scale(0.100000,-0.100000)"
fill="#000000" stroke="none">
<path d="M222 2543 c-35 -35 -75 -65 -90 -68 -15 -3 -51 -13 -79 -22 l-53 -16
0 -1219 0 -1218 4560 0 4560 0 0 938 0 939 -167 13 c-167 12 -204 19 -338 60
-38 12 -92 28 -120 36 -27 8 -61 22 -75 32 -47 35 -95 47 -137 34 -47 -14
-212 8 -276 37 -41 19 -111 41 -152 48 -11 1 -31 6 -45 10 l-25 6 30 7 c28 7
27 8 -13 9 -24 0 -41 -3 -37 -8 12 -20 -13 -19 -31 0 -20 22 -57 41 -86 44
-10 1 -35 14 -55 28 -21 13 -56 30 -78 37 -22 7 -47 18 -55 25 -8 7 -34 22
-57 34 -23 11 -47 29 -52 38 -10 16 -13 15 -36 -12 -14 -16 -30 -48 -36 -70
-6 -22 -17 -60 -25 -85 -8 -25 -14 -53 -14 -63 0 -10 -6 -28 -12 -40 -7 -13
-13 -58 -13 -107 l0 -84 -241 -2 c-133 -1 -247 2 -254 6 -9 5 -1 16 26 34 l39
27 -34 -6 c-18 -3 -46 -12 -62 -21 -16 -8 -31 -15 -34 -15 -2 0 -20 -6 -39
-14 -62 -26 -63 -15 -1 15 59 30 61 34 18 30 -27 -2 -162 46 -183 65 -8 8 -35
18 -60 24 -48 11 -64 1 -55 -30 4 -12 -5 -18 -37 -25 l-43 -10 35 -19 c19 -11
38 -19 42 -20 15 -1 20 -15 5 -15 -8 0 -23 -3 -31 -6 -12 -5 -15 -2 -9 12 4
12 3 15 -5 10 -27 -17 -10 -35 43 -47 55 -12 62 -20 24 -26 -12 -2 -18 1 -14
8 5 7 -18 10 -74 7 -67 -2 -78 -1 -64 9 9 7 25 13 34 13 10 0 21 5 24 10 10
16 -26 12 -84 -10 -40 -16 -65 -19 -98 -14 -33 5 -48 3 -54 -7 -7 -11 -9 -10
-9 3 0 12 21 27 63 47 44 20 54 28 34 27 -15 -2 -30 -6 -34 -9 -3 -4 -15 -7
-25 -7 -10 0 -18 -4 -18 -8 0 -11 -54 -27 -145 -44 -47 -8 -77 -20 -93 -35
-29 -29 -105 -64 -157 -73 -174 -31 -274 -56 -305 -77 -21 -14 -50 -23 -72
-23 -21 0 -52 -7 -70 -15 -18 -8 -87 -30 -153 -50 -66 -20 -135 -43 -153 -51
-18 -8 -38 -14 -45 -14 -17 0 -190 -47 -257 -70 -30 -11 -79 -24 -107 -30 -29
-7 -55 -15 -58 -20 -5 -7 77 -22 340 -60 242 -36 953 -93 1470 -120 105 -5
268 -14 362 -21 215 -14 230 -10 176 47 -16 16 -40 44 -54 63 -26 33 -26 33
-57 17 -50 -26 -72 -20 -175 50 l-99 65 -48 -17 c-47 -17 -48 -17 -111 8 -35
14 -98 33 -139 43 -77 19 -77 33 0 34 19 1 49 8 65 17 27 14 45 15 172 3 114
-10 154 -10 198 0 43 10 88 10 209 0 85 -6 180 -9 212 -6 93 8 324 64 384 94
76 36 129 52 240 69 52 8 103 17 113 20 11 3 17 0 17 -10 0 -8 15 -24 34 -35
61 -38 62 -47 3 -50 -83 -4 -83 -14 1 -77 13 -9 12 -14 -3 -38 l-18 -27 54 6
c39 4 49 3 38 -4 -22 -14 -248 -15 -389 -2 -143 13 -276 10 -272 -7 1 -7 -5
-15 -13 -18 -15 -6 -22 -25 -8 -22 5 0 15 -2 23 -5 8 -4 38 -10 65 -15 46 -7
50 -10 50 -35 -1 -19 4 -27 17 -27 10 0 18 5 18 10 0 6 5 10 12 10 6 0 8 -3 4
-7 -4 -4 36 -13 90 -20 103 -13 150 -33 77 -33 -23 0 -45 -5 -48 -10 -3 -6
-25 -10 -48 -10 -23 0 -60 -3 -82 -7 -60 -10 -17 -21 85 -22 47 -1 112 -5 145
-10 33 -5 98 -13 145 -17 l85 -7 -94 -14 c-58 -9 -100 -20 -110 -30 -15 -15
-14 -16 6 -11 16 4 20 2 16 -9 -5 -13 -23 -15 -105 -11 -78 4 -98 2 -98 -9 0
-16 -20 -16 -205 -3 -258 19 -275 20 -275 11 0 -5 -15 -12 -32 -16 l-33 -8 30
-4 c17 -2 37 -7 45 -10 8 -4 78 -17 155 -29 l140 -23 -89 2 c-61 1 -91 -2 -93
-10 -3 -9 -34 -11 -106 -8 -70 2 -88 1 -57 -4 25 -4 37 -9 27 -9 -10 -1 -16
-6 -13 -10 3 -5 61 -12 128 -16 155 -9 204 -13 248 -20 19 -3 63 -8 98 -10 35
-2 66 -7 70 -11 4 -4 -78 -5 -183 -2 -104 3 -180 3 -167 0 12 -2 22 -9 22 -14
0 -5 24 -9 53 -9 38 -1 48 -3 35 -10 -28 -17 -295 -30 -574 -29 -191 1 -268
-2 -278 -10 -9 -8 -28 -10 -50 -5 -24 4 -36 2 -36 -5 0 -14 -37 -15 -45 -1 -3
5 -20 10 -37 10 -37 0 -489 115 -673 171 -71 22 -183 49 -250 60 -66 12 -203
41 -305 65 -102 25 -288 67 -415 95 -459 100 -588 133 -597 155 -7 16 -16 19
-39 16 -21 -3 -37 2 -53 17 -12 12 -26 18 -30 14 -4 -4 -12 0 -17 10 -8 14
-24 17 -79 17 -63 0 -70 -2 -70 -19 0 -18 -7 -20 -81 -19 -45 0 -84 -3 -88 -8
-3 -5 -43 -9 -88 -9 -63 0 -85 4 -95 16 -29 36 -63 49 -125 49 -60 0 -62 -1
-65 -27 l-3 -28 -14 24 c-7 13 -8 21 -2 17 16 -10 14 2 -12 75 -29 84 -85 191
-96 184 -5 -2 -5 12 -1 32 5 20 6 41 3 47 -4 5 -10 26 -14 45 -4 20 -12 60
-18 90 -20 97 -32 131 -45 131 -7 0 -33 -16 -57 -35 -147 -116 -227 -167 -332
-212 -61 -26 -120 -46 -130 -46 -9 1 -16 -1 -13 -5 2 -4 -9 -7 -25 -8 -18 -1
-29 4 -29 12 0 17 -24 8 -65 -22 -16 -12 -70 -42 -120 -67 -77 -38 -104 -46
-190 -56 -111 -13 -174 -38 -324 -129 l-85 -51 -135 132 c-74 73 -155 151
-179 175 -24 24 -46 41 -48 39 -2 -2 2 -21 9 -43 8 -21 17 -57 21 -79 4 -22
14 -62 21 -90 8 -27 24 -90 35 -140 23 -100 122 -358 171 -448 6 -11 8 -22 5
-25 -3 -3 -6 1 -6 9 0 11 -2 11 -10 -1 -6 -10 -10 -11 -10 -2 0 6 -9 12 -21
12 -19 0 -21 -5 -17 -57 1 -32 -1 -59 -6 -60 -5 -1 -12 -7 -16 -13 -5 -8 -9
-7 -13 4 -4 10 -1 16 8 16 22 0 -12 89 -39 100 -19 8 -19 9 -2 9 11 1 17 3 14
6 -3 4 -17 3 -32 -1 -25 -6 -26 -10 -26 -69 0 -41 -5 -66 -12 -71 -7 -4 -10
-3 -5 1 4 5 0 19 -9 33 -10 15 -12 28 -7 33 5 5 8 23 5 39 -4 25 -7 28 -22 20
-10 -6 -21 -10 -24 -10 -8 0 -26 72 -26 104 0 24 -2 27 -15 16 -9 -8 -15 -9
-15 -2 0 6 5 14 10 17 6 4 8 10 5 15 -3 4 -5 63 -5 131 -1 68 -5 149 -10 179
-8 49 -20 198 -35 422 -4 66 -2 76 10 72 8 -4 15 -1 15 5 0 17 -27 13 -78 -13
-58 -30 -92 -59 -92 -79 0 -8 -13 -26 -29 -40 -17 -14 -27 -27 -24 -30 3 -3 2
-10 -1 -16 -16 -25 -66 60 -64 109 0 14 -7 68 -16 120 -8 52 -17 110 -18 127
l-3 33 -89 -64 c-49 -35 -93 -71 -98 -80 -5 -9 -18 -16 -30 -16 -17 0 -18 -3
-9 -14 10 -12 -2 -28 -64 -88 -46 -44 -86 -74 -101 -75 -13 -1 -23 1 -23 5 1
4 1 23 -1 42 -1 29 -3 32 -10 15 -5 -11 -10 -33 -11 -50 -3 -49 -17 82 -19
185 -1 76 -3 91 -12 73 -6 -13 -16 -23 -22 -23 -8 0 -8 -3 0 -8 6 -4 3 -14 -9
-26 -20 -19 -20 -18 -14 10 21 94 58 462 50 492 -3 12 -10 21 -17 20 -6 -1
-39 -30 -74 -65z m-62 -478 c13 -109 29 -139 31 -57 2 89 17 103 18 15 1 -45
4 -88 7 -96 3 -8 -2 -22 -11 -31 -14 -13 -15 -24 -6 -73 13 -67 14 -98 2 -68
-7 17 -8 17 -15 -8 -9 -37 -24 -34 -31 6 -8 52 -21 426 -13 421 3 -2 12 -51
18 -109z m87 -67 c-3 -8 -6 -5 -6 6 -1 11 2 17 5 13 3 -3 4 -12 1 -19z m7165
-40 c-13 -22 -27 -34 -45 -36 -18 -2 -25 -7 -20 -15 4 -7 0 -6 -10 2 -18 14
-23 26 -8 17 5 -4 11 -3 13 1 3 7 79 63 85 63 2 0 -6 -15 -15 -32z m-6929
-153 c-3 -9 -8 -14 -10 -11 -3 3 -2 9 2 15 9 16 15 13 8 -4z m2440 -114 c10
-7 17 -12 18 -10 0 2 3 24 5 49 7 58 10 60 23 13 22 -76 57 -253 52 -254 -3 0
-18 -3 -33 -5 -32 -5 -62 23 -79 75 -7 20 -19 41 -28 48 -9 7 -12 13 -7 13 5
0 4 6 -1 13 -9 10 -18 43 -39 146 -4 19 4 13 34 -25 21 -27 46 -55 55 -63z
m-2518 -28 c4 -16 1 -23 -10 -23 -12 0 -15 13 -14 63 1 60 1 61 10 22 5 -22
11 -50 14 -62z m140 -26 c27 -120 54 -311 45 -320 -4 -4 -10 13 -14 39 -3 26
-17 75 -30 108 -18 45 -26 89 -31 171 -7 124 3 125 30 2z m7289 -16 c-2 -3
-12 3 -22 13 -16 17 -16 18 5 5 12 -7 20 -15 17 -18z m186 -121 c0 -5 -4 -10
-10 -10 -5 0 -10 5 -10 10 0 6 5 10 10 10 6 0 10 -4 10 -10z m-820 -14 c0 -2
-9 -6 -20 -9 -11 -3 -18 -1 -14 4 5 9 34 13 34 5z m287 -162 c-3 -3 -12 -4
-19 -1 -8 3 -5 6 6 6 11 1 17 -2 13 -5z m-5607 -38 c58 -8 121 -22 140 -30 34
-15 32 -15 -62 -9 -96 6 -96 6 -122 -22 -22 -23 -31 -27 -61 -22 -19 3 -37 2
-40 -3 -8 -14 18 -60 59 -105 20 -21 36 -46 36 -54 0 -11 -6 -7 -18 10 -43 65
-80 98 -103 92 -15 -4 -20 -3 -15 5 5 8 -3 12 -25 12 -28 0 -31 3 -25 23 3 12
6 34 6 50 0 21 5 27 23 27 12 0 36 9 52 19 37 24 28 24 155 7z m350 -72 c66
-8 222 -56 199 -61 -9 -2 -57 7 -105 21 -49 14 -108 28 -130 30 -23 2 -50 9
-60 15 -17 10 -15 11 11 7 17 -3 55 -8 85 -12z m5428 -21 c-10 -2 -28 -2 -40
0 -13 2 -5 4 17 4 22 1 32 -1 23 -4z m-5915 -123 c4 -17 3 -19 -9 -9 -8 6 -14
18 -14 26 0 20 16 8 23 -17z m2607 -136 c22 -9 40 -20 40 -24 0 -5 -25 -12
-55 -15 -72 -9 -88 -28 -43 -51 45 -23 68 -44 68 -64 0 -14 -11 -16 -70 -16
-50 1 -70 -3 -70 -11 0 -7 10 -14 23 -15 12 -1 -48 -5 -133 -9 -141 -7 -964
-5 -1000 3 -8 1 -52 -1 -97 -5 -54 -5 -98 -3 -128 4 -30 8 -49 8 -58 2 -8 -7
-121 -8 -317 -3 -168 4 -308 6 -312 3 -14 -7 -171 18 -190 31 -16 11 -10 13
39 15 82 2 79 11 -4 11 l-71 0 -32 56 c-17 31 -30 58 -27 60 2 2 217 7 478 10
261 4 704 12 984 19 773 18 927 18 975 -1z m1243 -31 c-7 -2 -21 -2 -30 0 -10
3 -4 5 12 5 17 0 24 -2 18 -5z m272 -24 c140 -11 224 -19 383 -40 97 -13 130
-1 68 25 -20 8 -36 16 -36 18 0 2 57 4 127 6 94 2 128 -1 134 -10 7 -10 12
-11 29 0 27 16 50 15 50 -3 0 -9 -10 -15 -22 -16 -22 -1 -22 -1 2 -8 23 -7 21
-8 -15 -14 -91 -15 -216 -27 -225 -22 -6 4 -10 2 -10 -2 0 -10 -53 -9 -69 1
-5 4 -12 2 -16 -3 -3 -5 -14 -8 -25 -6 -12 2 -18 0 -15 -4 3 -5 -2 -12 -11
-15 -12 -5 -15 -2 -10 10 5 14 4 15 -9 4 -17 -14 -50 -6 -40 10 3 5 1 10 -4
10 -6 0 -11 -6 -11 -14 0 -11 -30 -7 -142 16 -79 16 -199 40 -268 54 -113 21
-118 23 -50 18 41 -4 125 -10 185 -15z m-4615 -44 c0 -8 -4 -15 -10 -15 -5 0
-10 7 -10 15 0 8 5 15 10 15 6 0 10 -7 10 -15z m7022 -65 c-74 -5 -75 -5 -35
-13 24 -5 45 -12 48 -17 14 -23 -603 -24 -644 0 -13 8 -14 9 -1 10 8 0 105 7
215 16 315 25 448 30 472 19 18 -8 7 -11 -55 -15z m-1755 -56 c-3 -3 -12 -4
-19 -1 -8 3 -5 6 6 6 11 1 17 -2 13 -5z m-190 -255 c18 -6 71 -32 118 -59 69
-38 83 -49 67 -54 -24 -8 -98 20 -198 75 -57 32 -78 38 -88 30 -10 -9 -15 -8
-19 3 -3 8 -1 17 6 20 14 5 70 -2 114 -15z m-5682 -249 c39 -23 71 -43 73 -45
6 -5 -106 8 -140 16 -29 8 -36 13 -33 30 2 11 0 32 -6 46 -9 25 -9 25 13 11
13 -8 55 -34 93 -58z m-295 -165 c7 -9 8 -15 2 -15 -5 0 -12 7 -16 15 -3 8 -4
15 -2 15 2 0 9 -7 16 -15z"/>
<path d="M1695 1251 c-2 -5 2 -17 10 -27 12 -17 15 -17 29 -4 14 13 13 16 -9
27 -14 6 -27 8 -30 4z"/>
<path d="M1700 1181 c0 -6 4 -13 10 -16 6 -3 7 1 4 9 -7 18 -14 21 -14 7z"/>
<path d="M4018 743 c6 -2 18 -2 25 0 6 3 1 5 -13 5 -14 0 -19 -2 -12 -5z"/>
<path d="M4103 743 c9 -2 23 -2 30 0 6 3 -1 5 -18 5 -16 0 -22 -2 -12 -5z"/>
<path d="M335 2353 c10 -203 16 -264 29 -269 6 -2 32 0 57 4 34 7 53 5 70 -4
13 -7 27 -13 32 -14 14 0 7 20 -13 37 -11 10 -20 21 -20 25 0 5 -16 31 -35 58
-30 43 -87 181 -102 248 -3 12 -10 25 -15 28 -5 3 -7 -41 -3 -113z"/>
<path d="M7000 2151 c0 -6 -7 -11 -15 -11 -8 0 -15 -5 -15 -10 0 -7 8 -7 23 1
30 16 30 16 18 24 -6 3 -11 1 -11 -4z"/>
<path d="M6924 2105 c-18 -13 -18 -14 4 -8 12 3 25 9 28 14 8 14 -10 11 -32
-6z"/>
<path d="M6785 2020 c-3 -6 1 -7 9 -4 18 7 21 14 7 14 -6 0 -13 -4 -16 -10z"/>
<path d="M3393 1807 c-51 -29 -93 -54 -93 -57 0 -3 21 -19 48 -37 l47 -32 53
17 c52 17 60 32 18 32 -18 0 -16 3 10 19 43 26 51 41 25 48 -16 4 -19 11 -14
34 3 16 4 29 2 29 -2 -1 -46 -24 -96 -53z"/>
<path d="M7400 1640 c-151 -31 -203 -48 -222 -72 l-17 -23 87 -7 c48 -4 131
-12 185 -18 54 -5 115 -10 137 -10 38 0 39 0 30 30 -14 47 -50 101 -63 93 -6
-4 -20 -8 -30 -8 -17 -2 -16 1 4 16 l24 19 -25 -1 c-14 -1 -63 -9 -110 -19z"/>
<path d="M3893 1603 c8 -10 27 -44 41 -75 18 -43 29 -56 40 -52 9 3 16 1 16
-5 0 -6 5 -11 11 -11 6 0 7 5 2 13 -4 6 -6 22 -5 34 3 17 -5 26 -30 38 -21 10
-25 14 -10 11 12 -2 22 -1 22 3 0 9 -63 46 -72 43 -5 -1 -8 3 -8 8 0 6 -5 10
-12 10 -7 0 -5 -7 5 -17z"/>
<path d="M4055 1480 c-3 -5 6 -12 20 -16 35 -9 41 0 10 14 -14 7 -27 8 -30 2z"/>
<path d="M7208 1403 c12 -2 30 -2 40 0 9 3 -1 5 -23 4 -22 0 -30 -2 -17 -4z"/>
<path d="M7448 1213 c12 -2 32 -2 45 0 12 2 2 4 -23 4 -25 0 -35 -2 -22 -4z"/>
<path d="M6853 1193 c9 -2 23 -2 30 0 6 3 -1 5 -18 5 -16 0 -22 -2 -12 -5z"/>
<path d="M6838 1053 c7 -3 16 -2 19 1 4 3 -2 6 -13 5 -11 0 -14 -3 -6 -6z"/>
<path d="M7178 1013 c6 -2 18 -2 25 0 6 3 1 5 -13 5 -14 0 -19 -2 -12 -5z"/>
</g>
</svg>
